# xmcd
#
# Track frame offsets:
#	150
#	753
#	20416
#	45296
#	56578
#	77561
#	102136
#	113002
#	137151
#	148010
#	176442
#	189671
#	208478
#	228229
#	247186
#	272671
#	312848
#
# Disc length: 4689 seconds
#
# Revision: 0
# Processed by: cddbd v1.5.2PL0 Copyright (c) Steve Scherf et al.
# Submitted via: EZCDAudioConverter 2.1.7.1
#
DISCID=de124f11
DTITLE=Los Amigos Invisibles - Venezuelan Zinga Son V1
DYEAR=2003
DGENRE=
TTITLE0=Rico Pa' Goza
TTITLE1=Comodón Johnson
TTITLE2=Una Disco Llena
TTITLE3=Venezuelan Zinga Son
TTITLE4=Playa Azul
TTITLE5=Ease Your Mind
TTITLE6=Isyormain
TTITLE7=Gerundio
TTITLE8=Ojos Cerrando
TTITLE9=Esto Es Lo QueHay
TTITLE10=Majunche
TTITLE11=Mambo Chimbo
TTITLE12=Diablo
TTITLE13=Calne
TTITLE14=Superfucker
TTITLE15=Bruja
TTITLE16=Las Gorditas De Mario
EXTD=
EXTT0=
EXTT1=
EXTT2=
EXTT3=
EXTT4=
EXTT5=
EXTT6=
EXTT7=
EXTT8=
EXTT9=
EXTT10=
EXTT11=
EXTT12=
EXTT13=
EXTT14=
EXTT15=
EXTT16=
PLAYORDER=
